<svg xmlns="http://www.w3.org/2000/svg" shape-rendering="geometricPrecision" text-rendering="geometricPrecision" image-rendering="optimizeQuality" fill-rule="evenodd" clip-rule="evenodd" viewBox="0 0 512 512"><path fill="#0183E5" d="M255.997 0c70.687 0 134.694 28.657 181.016 74.986C483.343 121.309 512 185.31 512 255.997s-28.657 134.694-74.987 181.016C390.691 483.343 326.684 512 255.997 512s-134.688-28.657-181.011-74.987C28.657 390.691 0 326.684 0 255.997S28.657 121.309 74.986 74.986C121.309 28.657 185.31 0 255.997 0z"/><path fill="#fff" fill-rule="nonzero" d="M358.276 324.368h-19.868V187.507h19.868v-24.198H153.723v24.198h19.869v136.861h-19.869v24.322h204.553v-24.322zm-115.563 0h-42.637V187.507h42.637v136.861zm26.573-136.861h42.638v136.861h-42.638V187.507z"/></svg>