<svg xmlns="http://www.w3.org/2000/svg" shape-rendering="geometricPrecision" text-rendering="geometricPrecision" image-rendering="optimizeQuality" fill-rule="evenodd" clip-rule="evenodd" viewBox="0 0 512 512"><path fill="#0183E5" d="M256.003 0c70.681 0 134.688 28.657 181.01 74.986C483.343 121.315 512 185.315 512 256.003c0 70.681-28.657 134.688-74.987 181.01C390.691 483.343 326.684 512 256.003 512c-70.688 0-134.694-28.657-181.017-74.987C28.657 390.691 0 326.69 0 256.003c0-70.688 28.657-134.688 74.986-181.017C121.309 28.657 185.315 0 256.003 0z"/><path fill="#fff" fill-rule="nonzero" d="M206.109 348.69h30.413l63.483-185.381h-30.658l-43.617 137.84a442.886 442.886 0 00-1.308 5.192c-.491 2.044-.94 4.169-1.39 6.377-.409 2.166-.858 4.373-1.226 6.581-.409 2.167-.736 4.21-.981 6.05h-.695c-.082-1.758-.327-3.761-.736-6.009a140.354 140.354 0 00-1.39-6.704 140.44 140.44 0 00-1.594-6.541 202.55 202.55 0 01-1.431-5.436l-43.003-137.35h-30.168l64.301 185.381zM354.25 187.509h15.942v-24.2h-60.131v24.2h16.27v136.859h-16.27v24.322h60.131v-24.322H354.25V187.509z"/></svg>