<?xml version="1.0" encoding="utf-8"?>
<!-- Generator: Adobe Illustrator 26.2.1, SVG Export Plug-In . SVG Version: 6.00 Build 0)  -->
<svg version="1.1" id="Livello_1" xmlns="http://www.w3.org/2000/svg" xmlns:xlink="http://www.w3.org/1999/xlink" x="0px" y="0px"
	 viewBox="0 0 700 700" style="enable-background:new 0 0 700 700;" xml:space="preserve">
<g>
	<path d="M181.36,319.72v10.68h-14.71v44.85h-13.53V330.4h-14.71v-10.68H181.36z"/>
	<path d="M196.59,373.11c-3.45-1.85-6.17-4.48-8.15-7.91c-1.98-3.43-2.97-7.44-2.97-12.02c0-4.53,1-8.53,3.01-11.98
		c2-3.45,4.75-6.1,8.23-7.95c3.48-1.85,7.38-2.77,11.71-2.77c4.32,0,8.23,0.92,11.71,2.77c3.48,1.85,6.22,4.5,8.23,7.95
		c2,3.45,3.01,7.45,3.01,11.98c0,4.54-1.02,8.53-3.04,11.98c-2.03,3.45-4.8,6.1-8.31,7.95c-3.51,1.85-7.42,2.77-11.75,2.77
		C203.93,375.88,200.04,374.96,196.59,373.11z M214.86,361.36c1.82-1.92,2.73-4.65,2.73-8.19c0-3.53-0.88-6.26-2.65-8.19
		c-1.77-1.92-3.94-2.89-6.53-2.89c-2.64,0-4.83,0.95-6.57,2.85c-1.74,1.9-2.61,4.64-2.61,8.23c0,3.53,0.86,6.26,2.57,8.19
		c1.71,1.93,3.86,2.89,6.45,2.89C210.84,364.25,213.04,363.29,214.86,361.36z"/>
	<path d="M307.96,335.62c3.24,3.32,4.86,7.94,4.86,13.84v25.79h-13.45v-23.97c0-2.85-0.75-5.05-2.25-6.6
		c-1.5-1.56-3.57-2.33-6.21-2.33c-2.64,0-4.71,0.78-6.21,2.33c-1.5,1.56-2.25,3.76-2.25,6.6v23.97H269v-23.97
		c0-2.85-0.75-5.05-2.25-6.6c-1.5-1.56-3.57-2.33-6.21-2.33c-2.64,0-4.71,0.78-6.21,2.33c-1.5,1.56-2.25,3.76-2.25,6.6v23.97h-13.53
		v-44.14h13.53v5.54c1.37-1.85,3.16-3.31,5.38-4.39c2.21-1.08,4.72-1.62,7.51-1.62c3.32,0,6.29,0.71,8.9,2.14
		c2.61,1.42,4.65,3.45,6.13,6.09c1.53-2.42,3.61-4.4,6.25-5.93c2.64-1.53,5.51-2.29,8.62-2.29
		C300.35,330.63,304.71,332.3,307.96,335.62z"/>
	<path d="M442.1,335.62c3.24,3.32,4.86,7.94,4.86,13.84v25.79h-13.45v-23.97c0-2.85-0.75-5.05-2.25-6.6
		c-1.5-1.56-3.57-2.33-6.21-2.33c-2.64,0-4.71,0.78-6.21,2.33c-1.5,1.56-2.25,3.76-2.25,6.6v23.97h-13.45v-23.97
		c0-2.85-0.75-5.05-2.25-6.6c-1.5-1.56-3.57-2.33-6.21-2.33c-2.64,0-4.71,0.78-6.21,2.33c-1.5,1.56-2.25,3.76-2.25,6.6v23.97H372.7
		v-44.14h13.53v5.54c1.37-1.85,3.16-3.31,5.38-4.39c2.21-1.08,4.72-1.62,7.51-1.62c3.32,0,6.29,0.71,8.9,2.14
		c2.61,1.42,4.65,3.45,6.13,6.09c1.53-2.42,3.61-4.4,6.25-5.93c2.64-1.53,5.51-2.29,8.62-2.29
		C434.5,330.63,438.86,332.3,442.1,335.62z"/>
	<path d="M464.88,373.11c-3.45-1.85-6.17-4.48-8.15-7.91c-1.98-3.43-2.97-7.44-2.97-12.02c0-4.53,1-8.53,3.01-11.98
		c2-3.45,4.75-6.1,8.23-7.95c3.48-1.85,7.38-2.77,11.71-2.77c4.32,0,8.23,0.92,11.71,2.77c3.48,1.85,6.22,4.5,8.23,7.95
		c2,3.45,3.01,7.45,3.01,11.98c0,4.54-1.02,8.53-3.05,11.98c-2.03,3.45-4.8,6.1-8.31,7.95c-3.51,1.85-7.42,2.77-11.75,2.77
		C472.23,375.88,468.34,374.96,464.88,373.11z M483.16,361.36c1.82-1.92,2.73-4.65,2.73-8.19c0-3.53-0.88-6.26-2.65-8.19
		c-1.77-1.92-3.94-2.89-6.52-2.89c-2.64,0-4.83,0.95-6.57,2.85s-2.61,4.64-2.61,8.23c0,3.53,0.86,6.26,2.57,8.19
		c1.71,1.93,3.86,2.89,6.45,2.89C479.13,364.25,481.34,363.29,483.16,361.36z"/>
	<path d="M520.37,380.94c0,5.43-1.37,9.35-4.11,11.75c-2.74,2.4-6.56,3.6-11.47,3.6h-5.3v-11.47h3.24c1.48,0,2.53-0.29,3.16-0.87
		c0.63-0.58,0.95-1.53,0.95-2.85v-49.99h13.53V380.94z M507.75,324.43c-1.5-1.4-2.25-3.12-2.25-5.18c0-2.11,0.75-3.86,2.25-5.26
		c1.5-1.4,3.44-2.1,5.81-2.1c2.32,0,4.23,0.7,5.73,2.1c1.5,1.4,2.25,3.15,2.25,5.26c0,2.06-0.75,3.78-2.25,5.18
		c-1.5,1.4-3.42,2.1-5.73,2.1C511.19,326.52,509.26,325.82,507.75,324.43z"/>
	<path d="M531.09,324.43c-1.5-1.4-2.25-3.12-2.25-5.18c0-2.11,0.75-3.86,2.25-5.26c1.5-1.4,3.44-2.1,5.81-2.1
		c2.32,0,4.23,0.7,5.74,2.1c1.5,1.4,2.25,3.15,2.25,5.26c0,2.06-0.75,3.78-2.25,5.18c-1.5,1.4-3.42,2.1-5.74,2.1
		C534.53,326.52,532.59,325.82,531.09,324.43z M543.62,331.11v44.14H530.1v-44.14H543.62z"/>
	<path d="M362.49,341.19c-2-3.45-4.75-6.1-8.23-7.95c-2.54-1.35-5.31-2.2-8.3-2.56c0-1.28,0-2.55,0-3.87l-0.04-2.3
		c11.06-5.25,18.61-15.43,19.01-15.97c1.07-1.46,0.57-3.4-1.1-4.33c-1.68-0.93-3.9-0.5-4.97,0.96c-0.08,0.1-5.39,7.24-12.99,11.99
		c0-0.68,0-1.35-0.03-2.01c-0.3-5.84-5.91-10.57-12.05-10.19c-5.88,0.36-10.66,4.88-10.84,10.24c-0.2,5.92,3.96,10.69,10.07,11.42
		c1.69,0.2,3.41,0.19,5.38,0.29c0,1.31,0,2.59,0,3.88c-2.7,0.41-5.22,1.22-7.55,2.45c-3.48,1.85-6.22,4.5-8.23,7.95
		c-2,3.45-3.01,7.45-3.01,11.98c0,4.59,0.99,8.6,2.97,12.02c1.98,3.43,4.69,6.06,8.15,7.91c3.45,1.85,7.34,2.77,11.67,2.77
		c4.32,0,8.24-0.92,11.75-2.77c3.51-1.85,6.27-4.5,8.31-7.95c2.03-3.45,3.05-7.45,3.05-11.98
		C365.5,348.64,364.5,344.65,362.49,341.19z M336.88,319.72c-0.95,0-1.88-0.07-2.81-0.26c-0.83-0.17-1.62-0.43-2.35-0.86
		c-1.71-1.01-2.43-3.01-1.76-4.94c0.61-1.76,2.41-2.95,4.25-2.83c1.4,0.1,2.45,0.77,3.2,1.91c0.49,0.75,0.8,1.59,1.01,2.47
		c0.32,1.28,0.44,2.59,0.43,3.93c0,0,0,0,0,0c0,0.23,0,0.42-0.04,0.47C338.72,319.74,336.88,319.72,336.88,319.72z M349.01,361.36
		c-1.82,1.93-4.02,2.89-6.6,2.89c-2.58,0-4.73-0.96-6.45-2.89c-1.71-1.92-2.57-4.65-2.57-8.19c0-3.58,0.87-6.33,2.61-8.23
		c1.74-1.9,3.93-2.85,6.57-2.85c2.58,0,4.76,0.96,6.52,2.89c1.77,1.93,2.65,4.65,2.65,8.19
		C351.74,356.71,350.83,359.44,349.01,361.36z"/>
</g>
</svg>
